<?xml version="1.0" encoding="UTF-8"?>
<svg width="30px" height="30px" viewBox="0 0 30 30" version="1.1" xmlns="http://www.w3.org/2000/svg" xmlns:xlink="http://www.w3.org/1999/xlink">
    <title>Fill 183</title>
    <g id="Page-1" stroke="none" stroke-width="1" fill="none" fill-rule="evenodd">
        <g id="Home" transform="translate(-1399.000000, -58.000000)" fill="#F69D9D">
            <g id="Navbar" transform="translate(394.000000, 49.000000)">
                <g id="Group-2" transform="translate(1005.000000, 9.000000)">
                    <path d="M19.4117647,9.69529412 L18.1323583,9.69628676 C17.1290521,9.69628676 16.9345076,10.2531618 16.9345076,11.0701103 L16.9345076,12.8727574 L19.3276603,12.8727574 L19.0158793,15.6968382 L16.9345076,15.6968382 L16.9345076,22.9411765 L14.4394101,22.9411765 L14.4394101,15.6968382 L12.3529412,15.6968382 L12.3529412,12.8727574 L14.4394101,12.8727574 L14.4394101,10.7911765 C14.4394101,8.37408088 15.7026753,7.05882353 17.5470255,7.05882353 C18.4305466,7.05882353 19.1900349,7.13525735 19.4117647,7.17 L19.4117647,9.69529412 Z M15,0 C6.71625,0 0,6.7153125 0,15 C0,23.28375 6.71625,30 15,30 C23.2846875,30 30,23.28375 30,15 C30,6.7153125 23.2846875,0 15,0 L15,0 Z" id="Fill-183"></path>
                </g>
            </g>
        </g>
    </g>
</svg>