<?xml version="1.0" encoding="UTF-8"?>
<svg width="30px" height="30px" viewBox="0 0 30 30" version="1.1" xmlns="http://www.w3.org/2000/svg" xmlns:xlink="http://www.w3.org/1999/xlink">
    <title>Instagram</title>
    <g id="Page-1" stroke="none" stroke-width="1" fill="none" fill-rule="evenodd">
        <g id="Home" transform="translate(-1471.000000, -58.000000)" fill="#F69D9D">
            <g id="Navbar" transform="translate(394.000000, 49.000000)">
                <g id="Group-2" transform="translate(1005.000000, 9.000000)">
                    <g id="Instagram" transform="translate(72.000000, 0.000000)">
                        <path d="M15,17.7272727 C16.5058942,17.7272727 17.7272727,16.5064639 17.7272727,14.9995557 C17.7272727,13.4935361 16.5058942,12.2727273 15,12.2727273 C13.4941058,12.2727273 12.2727273,13.4935361 12.2727273,14.9995557 C12.2727273,16.5064639 13.4941058,17.7272727 15,17.7272727" id="Fill-202"></path>
                        <path d="M20.0551279,12.2727273 C20.2753425,12.2727273 20.4545455,12.0939483 20.4545455,11.8740502 L20.4545455,9.94413158 C20.4545455,9.72423349 20.2753425,9.54545455 20.0551279,9.54545455 L18.1266902,9.54545455 C17.9064757,9.54545455 17.7272727,9.72423349 17.7272727,9.94413158 L17.7272727,11.8740502 C17.7272727,12.0939483 17.9064757,12.2727273 18.1266902,12.2727273 L20.0551279,12.2727273 Z" id="Fill-203"></path>
                        <path d="M22.9411765,21.0571324 C22.9411765,22.0974265 22.0964338,22.9411765 21.0531618,22.9411765 L8.94683824,22.9411765 C7.90455882,22.9411765 7.05882353,22.0974265 7.05882353,21.0571324 L7.05882353,8.941875 C7.05882353,7.90158088 7.90455882,7.05882353 8.94683824,7.05882353 L21.0531618,7.05882353 C22.0964338,7.05882353 22.9411765,7.90158088 22.9411765,8.941875 L22.9411765,21.0571324 Z M15,0 C6.7153125,0 0,6.7153125 0,15 C0,23.28375 6.7153125,30 15,30 C23.2846875,30 30,23.28375 30,15 C30,6.7153125 23.2846875,0 15,0 L15,0 Z" id="Fill-204"></path>
                        <path d="M19.2880428,14.8186115 C19.2880428,17.2834694 17.364723,19.2897919 15,19.2897919 C12.635277,19.2897919 10.7119572,17.2834694 10.7119572,14.8186115 C10.7119572,14.4097968 10.7648199,14.0129519 10.8643779,13.6363636 L9.54545455,13.6363636 L9.54545455,20.0429685 C9.54545455,20.2703947 9.72166341,20.4545455 9.93928136,20.4545455 L20.0598376,20.4545455 C20.2783366,20.4545455 20.4545455,20.2703947 20.4545455,20.0429685 L20.4545455,13.6363636 L19.1356221,13.6363636 C19.2351801,14.0129519 19.2880428,14.4097968 19.2880428,14.8186115" id="Fill-205"></path>
                    </g>
                </g>
            </g>
        </g>
    </g>
</svg>