<?xml version="1.0" encoding="UTF-8"?>
<svg width="30px" height="30px" viewBox="0 0 30 30" version="1.1" xmlns="http://www.w3.org/2000/svg" xmlns:xlink="http://www.w3.org/1999/xlink">
    <title>Fill 184</title>
    <g id="Page-1" stroke="none" stroke-width="1" fill="none" fill-rule="evenodd">
        <g id="Home" transform="translate(-1436.000000, -58.000000)" fill="#F69D9D">
            <g id="Navbar" transform="translate(394.000000, 49.000000)">
                <g id="Group-2" transform="translate(1005.000000, 9.000000)">
                    <path d="M58.3152206,11.9006021 C58.3211765,12.0345531 58.3251471,12.1685041 58.3251471,12.3043551 C58.3251471,16.4245355 55.0474265,21.1764706 49.0538235,21.1764706 C47.2134559,21.1764706 45.5011397,20.6606168 44.0588235,19.7761603 C44.3139338,19.8046605 44.5730147,19.8189106 44.8360662,19.8189106 C46.3627574,19.8189106 47.7673529,19.3211069 48.8830882,18.4841507 C47.4566544,18.4594505 46.2535662,17.5578939 45.8386397,16.3190847 C46.0381618,16.355185 46.2416544,16.3741851 46.4520956,16.3741851 C46.7488971,16.3741851 47.0367647,16.3361849 47.3107353,16.2649343 C45.8197794,15.9789822 44.6970956,14.7183229 44.6970956,13.2078118 L44.6970956,13.1679115 C45.1358456,13.4016132 45.6391176,13.5422142 46.1731618,13.5583644 C45.2986397,12.9988102 44.7229044,12.0440532 44.7229044,10.9629452 C44.7229044,10.391041 44.8837132,9.85523703 45.1646324,9.39448363 C46.7717279,11.2811976 49.1729412,12.5228567 51.8808824,12.6530077 C51.8252941,12.425006 51.7965074,12.1865542 51.7965074,11.9424024 C51.7965074,10.2200397 53.2556985,8.82352941 55.054375,8.82352941 C55.9924265,8.82352941 56.8391544,9.20258221 57.4327574,9.80868668 C58.1752574,9.66903565 58.8730882,9.40968374 59.5024265,9.0524811 C59.2592279,9.78018647 58.7420588,10.391041 58.0700368,10.7776938 C58.7291544,10.7016933 59.3565074,10.534492 59.9411765,10.2865402 C59.5044118,10.9116448 58.9515074,11.4607489 58.3152206,11.9006021 M52,0 C43.7153125,0 37,6.7153125 37,15 C37,23.28375 43.7153125,30 52,30 C60.2846875,30 67,23.28375 67,15 C67,6.7153125 60.2846875,0 52,0" id="Fill-184"></path>
                </g>
            </g>
        </g>
    </g>
</svg>