<?xml version="1.0" encoding="UTF-8"?>
<svg width="342px" height="54px" viewBox="0 0 342 54" version="1.1" xmlns="http://www.w3.org/2000/svg" xmlns:xlink="http://www.w3.org/1999/xlink">
    <title>8Asset 2</title>
    <g id="Page-1" stroke="none" stroke-width="1" fill="none" fill-rule="evenodd">
        <g id="Home" transform="translate(-394.000000, -49.000000)" fill="#231F20" fill-rule="nonzero">
            <g id="8Asset-2" transform="translate(394.000000, 49.000000)">
                <path d="M18.1,0 C18.47,0 20.1,0.15 20.51,0.22 L21.75,0.22 C24.1709018,0.372381716 26.5106744,1.15115728 28.54,2.48 C29.2107773,2.93693042 29.640423,3.67136742 29.71,4.48 C29.71,4.92 29.56,5.14 28.98,6.02 C28.7153551,6.48522537 28.4944097,6.9739834 28.32,7.48 C28.2108215,8.64110883 27.9932058,9.78945029 27.67,10.91 C27.3353662,11.4925993 26.730566,11.8682515 26.06,11.91 C25.4246206,11.8675265 24.8049311,11.6938773 24.24,11.4 C23.6729544,11.079904 23.1343249,10.7118962 22.63,10.3 C22.41,10.16 22.19,9.94 21.9,9.72 C20.4262881,9.01351951 18.8501773,8.54439874 17.23,8.33 C15.11,8.33 11.53,8.4 11.53,11.91 C11.5778697,13.1467926 12.1352828,14.3086732 13.07,15.12 C14.4186824,16.2468369 15.831011,17.2952321 17.3,18.26 C17.74,18.55 18.18,18.92 18.54,19.21 C19.2,19.72 19.86,20.08 20.44,20.52 C22.2074752,21.8353931 23.8784209,23.2757483 25.44,24.83 C29.16,28.55 29.52,29.43 30.62,31.83 C31.5126661,33.5393282 31.9402901,35.4532906 31.86,37.38 C31.9021005,38.7936397 31.828522,40.2083548 31.64,41.61 C31.2105528,44.1059495 30.1810151,46.4601589 28.64,48.47 C27.7937911,49.3796578 26.8812889,50.22531 25.91,51 C24.1716187,52.0531139 22.2734949,52.8164164 20.29,53.26 C19.86,53.33 16.64,53.48 16.21,53.48 C15.04,53.48 13.87,53.26 12.7,53.19 C11.5504117,53.1338892 10.4051084,53.0103434 9.27,52.82 C8.98,52.75 7.37,52.6 7.15,52.6 C6.82874166,52.4487901 6.49392208,52.3282551 6.15,52.24 C5.64,52.09 5.15,52.09 4.69,51.94 C3.78146306,51.7549285 2.8835066,51.5212595 2,51.24 C1.22463694,51.1179789 0.573013092,50.592107 0.29,49.86 C0.29,49.71 0,47.38 0,47.45 L0,47.23 C0.07,46.23 0.88,45.23 1.17,44.16 C1.39,43.36 1.31,42.56 1.53,41.75 C1.83,40.37 2.34,39.75 3.36,39.75 C4.38739473,39.906821 5.33546044,40.3948992 6.06,41.14 C7.65050724,42.5110354 9.5582209,43.4631736 11.61,43.91 L13.14,44.35 C14.099466,44.5553016 15.0788957,44.6525737 16.06,44.64 C17.1527304,44.607265 18.2248202,44.3341211 19.2,43.84 C20.9440551,42.7071737 21.9974565,40.7696675 22,38.69 C21.8188683,37.2861261 21.3744244,35.9290455 20.69,34.69 C20.3382513,34.266571 19.9464326,33.8781012 19.52,33.53 L18.94,32.72 C18.4312161,32.1267699 17.8382507,31.6112943 17.18,31.19 C16.67,30.82 14.48,28.85 13.9,28.42 C13.32,27.99 12.95,27.9 12.51,27.54 C12.07,27.18 10.91,26.01 10.61,25.79 C10.0096409,25.3331638 9.37810388,24.918822 8.72,24.55 C8.38399572,24.3035389 8.06648086,24.0328157 7.77,23.74 C7.41537125,23.428665 7.08133503,23.0946288 6.77,22.74 C6.4,22.38 5.77,21.79 5.31,21.36 C4.67967839,20.8264154 4.20038782,20.1367886 3.92,19.36 C3.66043496,18.8389014 3.35241055,18.3433838 3,17.88 C2.86,17.52 2.71,17.08 2.57,16.72 C2.18914772,15.4836626 1.94436516,14.209452 1.84,12.92 C1.84,12.77 1.91,11.97 1.91,11.75 C1.91,11.24 1.84,10.75 1.84,10.15 L1.84,9.71 C1.99387033,9.0325168 2.18753951,8.36469205 2.42,7.71 C2.58146207,7.14931032 2.77511674,6.59839617 3,6.06 C3.40450047,5.10245016 4.02784318,4.25306009 4.82,3.58 C5.07390777,3.39076904 5.34128428,3.22031652 5.62,3.07 C5.93427833,2.7338613 6.26819675,2.41663879 6.62,2.12 L8.62,1.02 C8.9481622,0.924871599 9.28221324,0.85138037 9.62,0.8 C10.1023043,0.599537342 10.5965883,0.429209751 11.1,0.29 C11.39,0.22 11.68,0.29 12.04,0.22 C12.3387609,0.209966221 12.6347857,0.159507442 12.92,0.07 L14.16,0.07 C14.82,0.07 15.4,0 16,0 L18.1,0 Z" id="Path"></path>
                <path d="M65.12,43.43 C64.2699957,43.5261245 63.4154138,43.5761976 62.56,43.58 C62.2,43.58 61.76,43.51 61.32,43.51 C60.578252,43.3365416 59.8213138,43.2360631 59.06,43.21 C58.2499247,43.2360868 57.4634329,43.4890115 56.79,43.94 C56.036943,44.2811457 55.4580446,44.9179339 55.19,45.7 C54.68,46.7 54.68,46.86 54.68,48.98 C54.6916622,50.0179506 54.3376468,51.0268947 53.68,51.83 C53.09,52.49 52.58,52.49 51.2,52.49 C50.6602969,52.4810654 50.1220647,52.4309196 49.59,52.34 C49.1310485,52.2554552 48.6664222,52.2053157 48.2,52.19 C47.69,52.27 45.2,52.41 44.7,52.41 C43.7301862,52.372025 42.9718399,51.5601484 43,50.59 C43.0331369,49.9972613 43.208034,49.4211298 43.51,48.91 C43.95,47.91 44.51,46.91 44.89,45.91 C45.27,44.91 45.41,44.08 45.77,43.13 C46.06,42.33 46.65,41.53 46.94,40.72 C47.3078785,39.877369 47.5763542,38.994755 47.74,38.09 C48.0429339,36.3083634 48.4842703,34.5530479 49.06,32.84 C49.42,31.84 49.86,30.79 50.22,29.77 C50.7393647,28.3860027 51.1800679,26.9737493 51.54,25.54 C51.76,24.88 52.05,24.15 52.34,23.49 C52.63,22.83 52.92,22.18 53.22,21.6 C54.02,19.55 54.31,17.51 55.11,15.47 C55.41,14.59 55.77,13.79 56.11,12.91 C56.45,12.03 56.48,11.23 56.7,10.36 C56.92,9.49 58.45,5.46 58.7,4.52 C58.8117689,3.59268784 59.1111843,2.69784402 59.58,1.89 C60.0501975,1.10885798 60.920957,0.659933114 61.83,0.73 C62.27,0.73 64.39,0.8 64.83,0.8 C65.27,0.8 66.94,0.73 67.38,0.73 C67.9458409,0.709070357 68.5044273,0.862681639 68.98,1.17 C69.86,1.68 69.98,1.9 70.59,4.09 C70.66,4.38 71.25,5.77 71.32,6.09 C71.39,6.41 71.61,6.97 71.76,7.48 C72.4581627,9.30237045 73.262885,11.082109 74.17,12.81 C74.5000031,13.7300799 74.7771222,14.6682781 75,15.62 C75.1124474,16.2114074 75.2593646,16.795737 75.44,17.37 C75.73,18.47 76.32,19.49 76.61,20.58 C76.9,21.67 77.12,22.58 77.41,23.5 C77.7,24.42 78,25.11 78.21,25.91 C78.42,26.71 78.51,27.37 78.8,28.1 C79.09,28.83 79.46,29.56 79.8,30.29 C80.3460338,31.484246 80.7811959,32.7261317 81.1,34 C81.1658612,34.6984745 81.3662077,35.3776152 81.69,36 C81.8413628,36.2795025 81.9620642,36.5745501 82.05,36.88 C82.2,37.61 82.34,38.26 82.49,38.88 C82.78,39.88 83.29,40.88 83.66,41.88 C84.03,42.88 84.17,43.49 84.46,44.29 C84.75,45.09 85.19,45.75 85.55,46.48 C86.4011917,47.7432518 86.901584,49.2099189 87,50.73 C87,51.97 86.42,52.49 85.84,52.49 L84.38,52.41 C83.94,52.41 81.97,52.19 81.46,52.19 C80.95,52.19 77.88,52.49 77.46,52.49 C75.2,52.49 75.2,49.2 75.2,48.18 C75.2,46.18 73.96,43.58 72.28,43.18 L71,43.18 C70.78,43.18 69.61,43.33 69.32,43.33 C69.03,43.33 67.93,43.25 67.64,43.25 L66.84,43.25 L65.12,43.43 Z M65.26,34.6 C65.41,34.6 66.21,34.75 66.36,34.75 C66.51,34.75 67.45,34.53 67.6,34.53 C67.96,34.53 68.25,34.6 68.6,34.6 C68.95,34.6 70.35,34.24 70.35,33.14 C70.2405171,32.4318247 69.9924511,31.7521919 69.62,31.14 C69.358482,30.3994173 69.1381452,29.6449305 68.96,28.88 C68.8061297,28.2025168 68.6124605,27.5346921 68.38,26.88 C68.23,26.36 67.5,24.03 67.14,22.35 C66.99,21.69 66.84,20.96 66.63,20.35 C66.2617548,19.5066581 65.9900294,18.6243893 65.82,17.72 C65.7491959,17.4861609 65.7088629,17.2441626 65.7,17 C65.557668,16.6816397 65.4600757,16.3451146 65.41,16 C65.26,15.49 65.19,15.05 64.82,15.05 C64.6,15.05 64.53,15.34 64.46,15.56 C64.39,15.78 64.53,16.29 64.53,16.36 C64.53,17.46 63.8,19.58 62.85,22.42 C62.49,23.52 61.98,25.2 61.61,26.29 C61.5318958,26.7024539 61.3830347,27.0982892 61.17,27.46 C60.88,28.19 60.52,28.85 60.3,29.58 C60.2021092,30.1447318 60.0021801,30.6869124 59.71,31.18 C59.3995358,31.7382403 59.224825,32.361718 59.2,33 C59.1702191,33.4467763 59.360649,33.879911 59.71,34.16 C59.9874939,34.3015296 60.2838403,34.4025568 60.59,34.46 C60.8260265,34.5942806 61.0697851,34.7144903 61.32,34.82 L61.54,34.82 C61.76,34.82 62.93,34.6 63.22,34.6 C63.4855177,34.5649914 63.7544823,34.5649914 64.02,34.6 L65.26,34.6 Z" id="Shape"></path>
                <path d="M145.71,49.93 C145.71,50.81 145.56,52.56 143.44,52.56 C143.08,52.56 141.44,52.34 141.11,52.34 C140.11,52.34 139.11,52.63 138.19,52.63 C137.453203,52.6379478 136.733764,52.4063236 136.14,51.97 C135.34,51.46 135.05,50.88 135.05,49.35 L135.05,48.18 C135.12,47.89 135.19,46.18 135.27,45.77 C135.349683,45.1296884 135.469925,44.4950795 135.63,43.87 C135.700297,43.312931 135.727045,42.7512282 135.71,42.19 C135.71,41.9 135.78,40.51 135.78,40.19 C135.78,39.87 135.41,38.19 135.41,37.78 L135.41,36.35 C135.41,35.77 135.05,33 135.05,32.35 L135.05,32.06 C135.12,30.96 135.49,29.79 135.63,28.63 L135.63,27.53 C135.63,27.02 135.49,24.39 135.49,23.81 L135.49,20.29 C135.545924,19.7709318 135.193134,19.2961898 134.68,19.2 C134.39,19.2 134.17,19.42 133.95,19.71 C133.709068,20.161871 133.441946,20.5992827 133.15,21.02 C133.08,21.02 130.96,23.36 130.89,23.5 C130.56837,23.9448016 130.274479,24.4090161 130.01,24.89 C129.411473,25.5233307 128.850514,26.1911385 128.33,26.89 C128.15399,27.2923274 128.006949,27.7067156 127.89,28.13 C127.381281,29.2117486 126.572548,30.1246098 125.56,30.76 C124.635746,31.0512889 123.677914,31.2226905 122.71,31.27 C121.580811,31.3912223 120.471267,30.9086465 119.79,30 C119.57,29.78 118.79,28.4 118.7,28.18 C118.4,27.81 117.6,26.79 116.94,26.13 C115.777869,25.0703817 114.815877,23.8103068 114.1,22.41 C113.81,21.9 112.1,19.56 111.4,19.56 C110.895035,19.6210234 110.516326,20.0513743 110.52,20.56 L110.52,21.56 C110.632804,22.0128333 110.706409,22.4745384 110.74,22.94 C110.74,23.31 110.67,23.75 110.67,24.19 C110.67,24.63 110.74,25.72 110.74,26.01 C110.74,26.3 110.59,27.91 110.59,28.27 C110.59,28.63 110.67,29.59 110.67,29.81 C110.67,30.03 110.59,31.34 110.59,31.63 C110.577337,31.9255876 110.604242,32.2215415 110.67,32.51 C110.790637,32.8665289 110.887516,33.2306599 110.96,33.6 C110.96,33.89 110.67,35.21 110.67,35.5 L110.67,37.33 C110.67,37.62 110.59,38.93 110.59,39.22 C110.59,39.51 110.81,40.83 110.81,41.12 C110.81,41.41 110.37,43.75 110.37,44.12 C110.460121,44.6407491 110.58371,45.1551486 110.74,45.66 C110.730433,46.0479514 110.75385,46.4360142 110.81,46.82 C110.853658,47.1591762 110.927279,47.4938177 111.03,47.82 C111.190121,48.3925278 111.264265,48.985674 111.25,49.58 C111.25,52.5 109.94,52.64 108.18,52.64 C107.89,52.64 106.18,52.5 105.85,52.5 C105.7,52.5 105.19,52.57 104.75,52.57 C104.146231,52.6487735 103.538713,52.6955056 102.93,52.71 C100.45,52.71 100.3,50.01 100.3,49.71 C100.294249,49.237563 100.368637,48.7675701 100.52,48.32 C100.818246,47.5214332 101.01316,46.6880086 101.1,45.84 L101.1,45.11 C101.1,44.82 101.25,43.29 101.25,43 C101.25,42.48 100.96,40 100.96,39.49 C100.936647,39.0263369 100.950022,38.5615529 101,38.1 C101.07,37.52 101.29,36.28 101.29,36.1 C101.29,35.59 101,33.04 101,32.52 C100.93,31.28 101,30.04 100.93,28.8 C100.85,28.44 100.71,26.68 100.71,26.32 C100.71,25.74 101,23.11 101,22.52 C101,21.52 100.85,20.52 100.85,19.52 C100.85,18.52 101.15,13.97 101.15,13.24 C101.15,13.02 101,11.93 101,11.71 C101,11.49 101.07,10.18 101.07,9.88 C101.081042,9.73314604 101.05705,9.58576924 101,9.45 C100.938291,8.86140913 100.841452,8.2770335 100.71,7.7 C100.64,7.33 100.64,6.96 100.56,6.6 C100.42,5.87 100.12,5.14 100.05,4.48 C99.9904654,4.15019225 99.9669939,3.8148856 99.98,3.48 C99.98,2.48 99.98,0.71 102.39,0.71 C103.094069,0.697006955 103.79834,0.720371384 104.5,0.78 L105.16,0.86 C105.53,0.86 106.69,0.71 106.99,0.71 C109.1,0.71 110.13,0.71 111.37,2.39 C111.978943,3.35745433 112.491402,4.38237322 112.9,5.45 C113.257651,6.11797653 113.672538,6.75368984 114.14,7.35 C114.36,7.65 115.75,9.03 115.97,9.4 C116.286224,9.89463555 116.576613,10.4053198 116.84,10.93 C117.337198,11.6657893 117.874685,12.3735354 118.45,13.05 C118.59,13.27 118.81,13.63 118.96,13.92 C119.023461,14.1313167 119.121451,14.3306761 119.25,14.51 C119.517606,14.9155261 119.811573,15.3030277 120.13,15.67 C120.969074,16.7839315 121.642707,18.0133121 122.13,19.32 C122.28,19.62 122.5,20.2 123.01,20.2 C123.52,20.2 124.61,18.45 124.83,18.08 C125.2,17.5 125.42,16.84 125.83,16.19 C126.333512,15.6032379 126.775805,14.966604 127.15,14.29 C127.37,13.92 127.51,13.56 127.73,13.12 C127.95,12.68 129.34,11.51 129.63,11.12 C129.92,10.73 131,9 131.33,8.61 C132.313774,7.32441553 133.099176,5.8985568 133.66,4.38 C134.46,2.48 134.97,1.75 135.71,1.31 C136.55228,1.00761965 137.435797,0.835637274 138.33,0.8 C138.771513,0.786730861 139.213321,0.813507066 139.65,0.88 C140.08,0.88 140.6,0.95 141.03,0.95 C141.46,0.95 143.81,0.66 144.32,0.66 C146.22,0.66 146.22,2.19 146.22,3.87 C146.044498,5.19499952 145.800842,6.51007623 145.49,7.81 C145.18453,9.19786542 145.083463,10.6229142 145.19,12.04 C145.19,12.34 145.27,13.87 145.27,14.23 C145.27,14.59 145.05,16.94 145.05,17.45 C145.05,18.4 145.19,19.34 145.19,20.29 L145.19,21 C145.12,21.73 144.9,22.39 144.83,23.12 C144.75683,23.7002719 144.733412,24.2857378 144.76,24.87 C144.748394,25.3809998 144.771782,25.8921948 144.83,26.4 C144.9,26.91 145.05,27.4 145.12,27.86 C145.12,28.08 145.19,28.3 145.19,28.52 C145.19,28.74 145.05,30.78 145.05,31.22 C145.038047,31.8894791 145.084893,32.5587151 145.19,33.22 C145.296105,33.5793439 145.369734,33.9474883 145.41,34.32 C145.421452,34.5885738 145.397921,34.8574963 145.34,35.12 C145.145577,36.5729262 145.02542,38.034827 144.98,39.5 C144.98,39.87 145.12,41.84 145.12,42.28 C145.12,42.57 144.98,43.95 144.98,44.28 C144.99529,44.8189342 145.042036,45.3565157 145.12,45.89 C145.384861,47.1417708 145.581815,48.4069525 145.71,49.68 L145.71,49.93 Z" id="Path"></path>
                <path d="M181.4,43.43 C180.55337,43.5264511 179.702099,43.5765258 178.85,43.58 C178.48,43.58 178.04,43.51 177.61,43.51 C176.86487,43.3365242 176.104613,43.2360497 175.34,43.21 C174.533353,43.2379405 173.750572,43.4907857 173.08,43.94 C172.322564,44.2751013 171.741611,44.9141491 171.48,45.7 C170.96,46.7 170.96,46.86 170.96,48.98 C170.98695,50.0103068 170.654622,51.0178959 170.02,51.83 C169.43,52.49 168.92,52.49 167.53,52.49 C166.993644,52.4804816 166.458779,52.4303381 165.93,52.34 C165.471049,52.2554552 165.006422,52.2053157 164.54,52.19 C164.03,52.27 161.54,52.41 161.04,52.41 C160.56438,52.4047764 160.110634,52.2094125 159.779983,51.8674889 C159.449332,51.5255654 159.269283,51.0655283 159.28,50.59 C159.312194,49.9956964 159.490827,49.418572 159.8,48.91 C160.23,47.91 160.8,46.91 161.18,45.91 C161.56,44.91 161.69,44.08 162.06,43.13 C162.35,42.33 162.93,41.53 163.23,40.72 C163.593396,39.8757217 163.861713,38.9936271 164.03,38.09 C164.329469,36.3085947 164.767464,34.5532686 165.34,32.84 C165.71,31.84 166.15,30.79 166.51,29.77 C167.029365,28.3860027 167.470068,26.9737493 167.83,25.54 C168.061776,24.843559 168.328787,24.1593437 168.63,23.49 C168.92,22.84 169.21,22.18 169.5,21.6 C170.31,19.55 170.6,17.51 171.4,15.47 C171.69,14.59 172.06,13.79 172.35,12.91 C172.64,12.03 172.72,11.23 172.94,10.36 C173.16,9.49 174.69,5.46 174.94,4.52 C175.051908,3.5941315 175.347699,2.69995878 175.81,1.89 C176.293422,1.09189457 177.191149,0.641087779 178.12,0.73 C178.56,0.73 180.67,0.8 181.12,0.8 C181.57,0.8 183.24,0.73 183.68,0.73 C184.24569,0.710359872 184.803897,0.863866835 185.28,1.17 C186.16,1.68 186.23,1.9 186.89,4.09 C186.96,4.38 187.54,5.77 187.62,6.09 C187.7,6.41 187.91,6.97 188.06,7.48 C188.754736,9.30221431 189.556122,11.0819584 190.46,12.81 C190.809703,13.7144689 191.103588,14.6395398 191.34,15.58 C191.452447,16.1714074 191.599365,16.755737 191.78,17.33 C192.07,18.43 192.65,19.45 192.95,20.54 C193.25,21.63 193.46,22.54 193.75,23.46 C194.04,24.38 194.33,25.07 194.55,25.87 C194.70924,26.6095719 194.906164,27.3405248 195.14,28.06 C195.43,28.79 195.79,29.52 196.14,30.25 C196.671253,31.4588411 197.089698,32.714175 197.39,34 C197.456823,34.6970211 197.653545,35.3753721 197.97,36 C198.128634,36.2772087 198.252883,36.5727216 198.34,36.88 C198.48,37.61 198.63,38.26 198.78,38.88 C199.07,39.88 199.58,40.88 199.94,41.88 C200.3,42.88 200.46,43.49 200.75,44.29 C201.04,45.09 201.48,45.75 201.84,46.48 C202.679873,47.7162463 203.183074,49.1500271 203.3,50.64 C203.3,51.88 202.72,52.4 202.13,52.4 L200.67,52.32 C200.24,52.32 198.27,52.1 197.75,52.1 C197.23,52.1 194.18,52.4 193.75,52.4 C191.49,52.4 191.49,49.11 191.49,48.09 C191.49,46.09 190.25,43.49 188.57,43.09 L187.33,43.09 C187.11,43.09 185.94,43.24 185.65,43.24 C185.36,43.24 184.26,43.16 183.97,43.16 L183.17,43.16 L181.4,43.43 Z M181.55,34.6 C181.69,34.6 182.5,34.75 182.64,34.75 C182.78,34.75 183.74,34.53 183.88,34.53 C184.25,34.53 184.54,34.6 184.88,34.6 C185.22,34.6 186.64,34.24 186.64,33.14 C186.530517,32.4318247 186.282451,31.7521919 185.91,31.14 C185.643927,30.400893 185.423512,29.6461381 185.25,28.88 C185.087949,28.2036066 184.891019,27.5360481 184.66,26.88 C184.52,26.36 183.79,24.03 183.42,22.35 C183.287493,21.67433 183.117226,21.0066165 182.91,20.35 C182.54486,19.5063612 182.276482,18.6240673 182.11,17.72 C182.042582,17.4857161 182.005612,17.2437265 182,17 C181.849262,16.6840419 181.748077,16.3467563 181.7,16 C181.56,15.49 181.49,15.05 181.12,15.05 C180.75,15.05 180.83,15.34 180.76,15.56 C180.69,15.78 180.83,16.29 180.83,16.36 C180.83,17.46 180.1,19.58 179.15,22.42 C178.78,23.52 178.27,25.2 177.91,26.29 C177.831896,26.7024539 177.683035,27.0982892 177.47,27.46 C177.18,28.19 176.81,28.85 176.59,29.58 C176.49478,30.1439576 176.29828,30.6860266 176.01,31.18 C175.708428,31.7202735 175.534008,32.3221938 175.5,32.94 C175.470219,33.3867763 175.660649,33.819911 176.01,34.1 C176.286822,34.2431135 176.583405,34.3442216 176.89,34.4 C177.126027,34.5342806 177.369785,34.6544903 177.62,34.76 L177.84,34.76 C178.05,34.76 179.22,34.54 179.51,34.54 C179.778868,34.5050291 180.051132,34.5050291 180.32,34.54 L181.55,34.6 Z" id="Shape"></path>
                <path d="M217.1,10.58 C217.139268,9.21012803 217.015058,7.84046009 216.73,6.5 C216.608679,5.9476163 216.538383,5.38525104 216.52,4.82 C216.52,3.72 216.52,1.68 217.98,0.95 C218.842001,0.776395125 219.721119,0.702576092 220.6,0.73 C221.19,0.73 224.25,0.95 224.98,0.95 C225.496198,0.935882556 226.010781,0.885760816 226.52,0.8 C227.055821,0.81846515 227.590084,0.868552312 228.12,0.95 C228.34,0.95 229.58,0.88 229.87,0.88 C230.87,0.88 231.87,1.02 232.94,1.09 C233.580341,1.13899707 234.215715,1.23931929 234.84,1.39 C235.477623,1.41974606 236.112451,1.49325237 236.74,1.61 C237.25,1.68 237.74,1.97 238.34,2.12 C238.94,2.27 239.34,2.34 239.88,2.48 C240.42,2.62 241.12,3.07 241.7,3.28 C242.32194,3.48337578 242.929905,3.72723005 243.52,4.01 C243.801405,4.16488966 244.072022,4.33861877 244.33,4.53 C244.77,4.75 245.13,4.82 245.5,5.04 C245.57,5.11 248.12,6.64 248.2,6.72 C248.566257,6.96983375 248.901891,7.26183552 249.2,7.59 C251.46,9.78 251.75,10 252.2,10.66 C252.35,10.95 253.88,13.5 254.83,15.33 C256.911584,19.1306857 257.969507,23.4071749 257.9,27.74 C257.982768,30.3870887 257.610703,33.0287523 256.8,35.55 C256.65,35.92 255.63,39.05 255.41,39.49 C255.19,39.93 254.83,40.37 254.61,40.81 C254.39,41.25 254.24,41.54 254.03,41.81 C253.228613,43.1785322 252.272316,44.4502401 251.18,45.6 C250.324096,46.4514114 249.42278,47.2559191 248.48,48.01 C247.89,48.45 244.76,50.13 243.88,50.57 C240.491547,52.0097392 236.829607,52.6923004 233.15,52.57 C232.2,52.57 227.67,52.35 226.58,52.35 L221,52.35 L220.93,52.43 L220.42,52.43 C219.03,52.43 217.64,52.21 217.28,50.67 C217.21,50.38 216.91,47.9 216.91,47.53 C216.91,46.95 217.28,44.1 217.28,43.53 C217.28,42.96 217.21,42.73 217.21,42.29 C217.097307,41.6853784 217.02382,41.0741036 216.99,40.46 C216.923852,40.1987685 216.896891,39.9291573 216.91,39.66 C216.9357,38.2922325 217.035848,36.9268786 217.21,35.57 C217.28,34.26 217.35,33.97 217.35,33.31 C217.35,33.02 217.13,31.31 217.13,30.97 C217.13,30.39 217.28,29.81 217.28,29.22 C217.28,28.93 217.21,27.62 217.21,27.32 C217.21,27.02 217.35,25.43 217.35,25.06 C217.35,24.11 217.28,23.16 217.21,22.29 C217.21,21.99 217.28,20.83 217.28,20.53 C217.28,20.02 217.06,17.76 217.06,17.25 L217.1,10.58 Z M226.81,32.12 C226.81,32.41 226.66,33.72 226.66,34.02 C226.66,34.32 226.88,36.13 226.88,36.57 C226.88,37.01 226.66,39.42 226.66,39.93 C226.66,41.83 227.17,42.93 228.2,43.29 C229.23,43.65 232.79,44.02 234.04,44.02 C236.44,44.02 240.75,41.75 240.82,41.68 C240.89,41.61 243.16,39.68 243.45,39.42 C244.565828,38.4553373 245.419043,37.2236797 245.93,35.84 C246.112355,35.4161432 246.259519,34.9779977 246.37,34.53 C246.608418,33.9797543 246.875449,33.4423537 247.17,32.92 C247.97627,31.160121 248.353271,29.2339885 248.27,27.3 C248.27128,26.4186849 248.197682,25.5388543 248.05,24.67 C247.98,24.24 247.61,22.34 247.54,21.97 C247.47,21.6 245.06,16.57 244.69,16.06 C244.47,15.77 241.92,12.63 240.75,12.06 C240.6,11.92 238.75,11.26 238.34,11.12 C237.93,10.98 237.61,10.9 237.25,10.75 C236.791064,10.5234776 236.297678,10.3747861 235.79,10.31 C235.2,10.24 232.5,9.44 231.84,9.44 C231.7,9.44 230.84,9.58 230.6,9.58 C230.36,9.58 229.29,9.44 229,9.44 C226.52,9.44 226.52,11.12 226.52,12.21 C226.547388,12.6301807 226.62117,13.0460427 226.74,13.45 L226.74,15 C226.74,15.36 226.88,18.43 226.88,19.08 C226.88,19.38 226.81,20.76 226.74,21.13 L226.74,22.81 C226.74,23.03 226.88,24.12 226.88,24.34 C226.915008,24.8994529 226.915008,25.4605471 226.88,26.02 C226.88,26.24 226.95,27.26 226.95,27.48 C226.95,27.7 226.81,29.16 226.81,29.48 L226.81,32.12 Z" id="Shape"></path>
                <path d="M280.75,0.73 C281.712939,0.754270792 282.629613,1.14815411 283.31,1.83 C283.705454,2.77834151 283.879859,3.80425526 283.82,4.83 C283.835012,5.07549716 283.811391,5.32182918 283.75,5.56 C283.67,6.07 283.46,6.56 283.38,6.94 L283.38,8.18 C283.38,8.54 283.31,8.91 283.31,9.27 C283.31,9.63 283.38,11.02 283.38,11.27 C283.38,11.52 283.38,13.9 284.11,14.85 C285.06,15.95 287.25,16.09 288.2,16.09 C288.57,16.09 290.39,15.87 290.83,15.87 C291.27,15.87 293.67,15.95 294.19,15.95 C294.33,15.95 295.14,15.87 295.35,15.87 C295.56,15.87 296.45,16.02 296.67,16.02 C296.74,16.02 298.57,15.8 298.67,15.73 C299.16397,15.6087601 299.651296,15.4618948 300.13,15.29 C300.767136,14.9032281 301.148622,14.2051095 301.13,13.46 C301.13,13.25 301.06,12.15 301.06,11.86 C301.06,11.57 301.21,9.86 301.21,9.45 C301.21,9.3 301.13,8.28 301.13,8.06 C301.094937,7.67078809 301.094937,7.27921191 301.13,6.89 C301.13,6.46 300.92,4.49 300.92,4.05 C300.92,1.64 301.65,0.84 303.32,0.84 C303.654605,0.838588704 303.988855,0.861986162 304.32,0.91 C304.68,0.91 305.12,0.98 305.26,0.98 C305.4,0.98 306.74,0.8 307,0.8 C307.481849,0.715929195 307.972318,0.692413598 308.46,0.73 C309.138724,0.681045763 309.806134,0.92373356 310.294887,1.39721329 C310.78364,1.87069302 311.047388,2.5300642 311.02,3.21 C311.02,3.65 310.87,4.82 310.8,5.4 C310.665123,6.00101694 310.591414,6.61414052 310.58,7.23 C310.58,7.67 310.8,9.78 310.8,10.29 C310.8,11.17 310.65,12.04 310.65,12.92 C310.65,13.8 310.58,14.23 310.58,15.62 C310.58,16.28 310.43,19.42 310.43,20.15 C310.43,20.88 310.65,24.31 310.65,25.15 C310.65,25.66 310.51,28.29 310.43,28.95 C310.43,29.38 310.51,31.72 310.51,32.23 C310.51,32.45 310.58,33.55 310.58,33.84 C310.565923,34.303198 310.515771,34.7645948 310.43,35.22 C310.43,35.44 310.51,36.32 310.51,36.54 C310.51,36.76 310.36,38.29 310.36,38.54 C310.36,38.79 310.43,39.42 310.43,39.86 L310.43,43.07 C310.424359,44.0513062 310.524945,45.0303406 310.73,45.99 C311.049471,46.9101632 311.267431,47.8624824 311.38,48.83 C311.38,50.22 310.51,52.63 308.61,52.63 C308.17,52.63 305.98,52.27 305.47,52.27 C305.030285,52.2814557 304.592205,52.3282734 304.16,52.41 C303.727346,52.5221057 303.285625,52.5957258 302.84,52.63 C301.89,52.63 300.58,51.54 300.58,49.57 C300.629442,48.6349901 300.753165,47.7053929 300.95,46.79 C301.085217,46.165584 301.15559,45.5288736 301.16,44.89 C301.16,44.6 301.02,43.07 301.02,42.78 C301.02,42.12 301.16,41.46 301.16,40.78 C301.16,40.56 301.09,39.53 301.09,39.32 L301.09,37.81 C301.09,37.38 300.95,35.26 300.95,34.75 L300.95,32.34 C300.95,31.34 300.87,30.08 300.8,29.27 C300.58,26.94 300.51,25.99 299.41,25.33 C298.35462,25.1023206 297.279503,24.9783975 296.2,24.96 C295.683041,24.9719294 295.169376,25.0457897 294.67,25.18 C293.5,25.33 291.6,25.4 291.09,25.4 C290.58,25.4 288.02,25.18 287.44,25.18 C286.56,25.18 284.74,25.33 284.08,26.42 C283.834599,27.3737395 283.713595,28.3552158 283.72,29.34 C283.72,30.22 283.64,31.02 283.64,31.9 C283.64,32.19 283.72,33.51 283.72,33.8 C283.72,34.67 283.57,35.48 283.57,36.28 C283.57,36.79 283.94,39.05 284.01,39.56 L284.01,42.34 C284.08,43.29 284.08,43.73 284.08,44.75 C284.067047,45.3370262 284.117336,45.9237409 284.23,46.5 C284.434784,47.3104128 284.532284,48.1442043 284.52,48.98 C284.649425,50.1166549 284.247227,51.2494528 283.43,52.05 C282.84,52.49 282.18,52.56 280.51,52.56 C280.21,52.56 278.83,52.41 278.46,52.41 C277.8,52.41 277.15,52.56 276.46,52.56 C274.46,52.56 273.46,51.39 273.46,48.47 C273.432659,48.0516325 273.480066,47.6317396 273.6,47.23 C273.681661,46.7565655 273.805487,46.2913802 273.97,45.84 C274.04731,45.430704 274.094105,45.01623 274.11,44.6 C274.11,44.16 273.75,39.93 273.75,39.05 C273.75,38.17 274.19,33.72 274.19,32.7 C274.19,32.05 274.04,31.39 274.04,30.7 L274.04,29.75 C274.051549,29.458244 274.028047,29.1661563 273.97,28.88 C273.97,28.59 273.75,27.42 273.75,27.13 C273.75,26.84 274.04,23.18 274.04,22.45 C274.04,22.09 273.82,20.45 273.82,20.12 C273.82,19.97 273.9,19.24 273.9,19.12 C273.9,18.61 273.53,16.12 273.53,15.62 C273.53,15.12 273.6,14.45 273.6,13.87 C273.6,13.29 273.97,10.73 273.97,10.15 C273.97,9.57 273.6,7.52 273.6,7.01 C273.6,6.86 273.68,6.42 273.68,6.35 C273.61712,5.8572276 273.520222,5.36939611 273.39,4.89 C273.319157,4.72993179 273.291571,4.55407178 273.31,4.38 C273.31,1.75 274.85,0.8 276.01,0.8 C276.31,0.8 277.84,1.02 278.13,1.02 C278.42,1.02 280.32,0.73 280.75,0.73 Z" id="Path"></path>
                <path d="M330.1,2.85 C330.506053,1.51556907 331.778259,0.637042423 333.17,0.73 C333.97,0.73 334.78,0.88 335.58,0.88 C336.16,0.88 336.82,0.8 337.48,0.8 C338.57,0.8 340.62,1.17 340.62,4.09 C340.62,4.45 340.18,6.28 340.18,6.72 C340.18,6.86 340.25,7.3 340.25,7.45 C340.25,7.6 340.1,8.32 340.1,8.54 C340.1,8.76 340.25,9.54 340.25,9.71 C340.25,10.07 340.1,11.61 340.1,11.9 C340.1,12.19 340.18,13.14 340.18,13.36 C340.18,13.58 340,14.6 340,14.89 C340.047175,15.2614166 340.120693,15.6290098 340.22,15.99 C340.22,16.35 340.29,16.64 340.29,16.99 C340.29,17.34 340.15,19.1 340.15,19.47 L340.15,21.9 C340.15,22.19 340.29,23.65 340.29,23.9 C340.29,24.15 340.07,26.24 340.07,26.68 C340.07,26.9 340.22,27.99 340.22,28.21 C340.22,28.94 340,29.67 340,30.4 C340,31.13 340.29,32.08 340.29,32.96 C340.29,33.17 340.15,34.05 340.15,34.2 C340.15,34.35 340.22,35.14 340.22,35.29 C340.22,35.8 340.15,36.29 340.15,36.82 C340.15,37.04 340.37,38.21 340.37,38.43 L340.37,39.31 C340.37,39.6 340.59,41.13 340.59,41.5 C340.59,41.87 340.44,43.5 340.44,43.83 C340.44,44.16 340.51,44.93 340.51,45.15 L340.51,45.88 C340.51,46.39 341.1,49.16 341.1,49.82 C341.1,50.91 340.8,52.52 338.61,52.52 C338.18,52.52 335.99,52.3 335.47,52.3 C335.11,52.3 333.14,52.45 332.7,52.45 C331.802757,52.4408199 330.974188,51.9678923 330.51,51.2 C330.159089,50.5232419 330.016425,49.7577305 330.1,49 C330.1,48.56 330.18,48.2 330.18,47.76 C330.32,46.88 330.54,45.94 330.61,44.99 L330.61,44.11 C330.61,43.6 330.32,41.11 330.32,40.53 C330.32,40.1 330.47,37.91 330.47,37.4 L330.47,36.06 C330.474517,35.6924864 330.521495,35.3267262 330.61,34.97 C330.676487,34.4863341 330.703243,33.9980347 330.69,33.51 C330.622191,32.7319502 330.595487,31.9508642 330.61,31.17 C330.61,30.95 330.47,29.49 330.47,29.05 C330.345441,28.2799356 330.29521,27.4996791 330.32,26.72 C330.30644,26.328288 330.333248,25.9362207 330.4,25.55 C330.47,24.89 330.54,24.24 330.61,23.65 C330.61,23.36 330.54,22.12 330.54,21.83 C330.54,21.54 330.61,20.37 330.61,20.07 L330.61,18.18 C330.61,17.96 330.54,17.81 330.47,16.86 C330.4,16.35 330.32,14.31 330.32,13.72 C330.32,13.29 330.54,11.24 330.54,10.8 C330.54,10.36 330,6.64 330,6.5 C329.93,6.06 329.78,5.26 329.78,5.04 C329.78,4.82 330,3 330.1,2.85 Z" id="Path"></path>
            </g>
        </g>
    </g>
</svg>